<?xml version="1.0" encoding="iso-8859-1"?>
<!-- Uploaded to: SVG Repo, www.svgrepo.com, Generator: SVG Repo Mixer Tools -->
<svg fill="#000000" height="800px" width="800px" version="1.1" id="Capa_1" xmlns="http://www.w3.org/2000/svg" xmlns:xlink="http://www.w3.org/1999/xlink" 
	 viewBox="0 0 490 490" xml:space="preserve">
<g id="line_26_">
	<path d="M258.115,261.756c-2.26-2.962-3.786-6.504-4.611-10.595l-20.046,2.153c1.542,10.092,5.069,17.893,10.596,23.42
		c5.527,5.527,12.717,8.824,21.588,9.908v13.985h11.13V286.26c9.985-1.435,17.786-5.328,23.389-11.679
		c5.603-6.351,8.412-14.168,8.412-23.42c0-8.305-2.229-15.099-6.687-20.397c-4.458-5.298-12.824-9.618-25.114-12.947v-30.031
		c4.962,2.153,8.031,6.244,9.221,12.29l19.435-2.534c-1.328-7.679-4.397-13.801-9.221-18.397c-4.824-4.58-11.298-7.359-19.435-8.336
		v-7.603h-11.13v7.603c-8.809,0.87-15.863,4.153-21.16,9.878c-5.298,5.71-7.954,12.763-7.954,21.16
		c0,8.305,2.351,15.344,7.038,21.16c4.672,5.802,12.046,10.153,22.076,13.008v32.183
		C262.878,266.87,260.374,264.718,258.115,261.756z M276.771,239.328c4.611,1.328,7.924,3.237,9.939,5.725
		c2.03,2.473,3.038,5.435,3.038,8.87c0,3.832-1.206,7.176-3.618,10.031c-2.412,2.84-5.527,4.626-9.374,5.344v-29.97H276.771z
		 M258.191,208.473c-1.634-2.321-2.458-4.84-2.458-7.557c0-2.962,0.901-5.679,2.687-8.137c1.786-2.458,4.199-4.199,7.221-5.221
		v26.58C262.313,212.702,259.824,210.809,258.191,208.473z"/>
	<path d="M167.275,372.214c-32.931,0-59.633,26.367-59.633,58.901c0,32.519,26.702,58.885,59.633,58.885
		c32.931,0,59.634-26.366,59.634-58.885C226.924,398.58,200.206,372.214,167.275,372.214z M167.275,459.466
		c-16.046,0-29.099-12.718-29.099-28.351c0-15.634,13.053-28.366,29.099-28.366c16.046,0,29.099,12.718,29.099,28.366
		C196.374,446.763,183.321,459.466,167.275,459.466z"/>
	<path d="M368.221,372.214c-32.931,0-59.634,26.367-59.634,58.901c0,32.519,26.702,58.885,59.634,58.885
		s59.634-26.366,59.634-58.885C427.855,398.58,401.153,372.214,368.221,372.214z M368.221,459.466
		c-16.046,0-29.099-12.718-29.099-28.351c0-15.634,13.053-28.366,29.099-28.366s29.099,12.718,29.099,28.366
		C397.32,446.763,384.267,459.466,368.221,459.466z"/>
	<path d="M100.969,0H0.725v30.534h76.763l22.687,85.282h-53.16L108.817,348h318.656l61.802-232.183H131.794L100.969,0z
		 M404.008,317.466h-271.71L86.741,146.351H449.55L404.008,317.466z"/>
</g>
</svg>